<svg width="80" height="80" viewBox="0 0 80 80" fill="none" xmlns="http://www.w3.org/2000/svg">
<path d="M0 55.2703V53.7233C0.980262 50.7892 2.4692 48.2986 5.62724 47.061C6.04583 46.896 6.34786 45.9524 6.35316 45.3697C6.40615 39.5325 6.41674 33.7004 6.34256 27.8632C6.33726 27.2186 5.92396 26.1873 5.43118 26.0017C2.18307 24.7538 0.90608 22.124 0 19.1693C0 18.8238 0 18.4783 0 18.1379C0.127169 17.9111 0.291429 17.6996 0.37091 17.4573C2.50099 11.125 7.05259 9.4079 13.0719 12.5225C13.7714 12.8834 15.0854 12.6875 15.8432 12.2749C22.3712 8.70661 28.8568 5.06608 35.3106 1.37915C38.6011 -0.502994 41.7539 -0.435959 45.0285 1.44103C51.3234 5.05577 57.6977 8.54675 63.9926 12.1563C65.3173 12.9144 66.2763 13.2134 67.7388 12.1924C70.0331 10.5991 72.6878 10.5991 75.2894 11.7232C77.9441 12.8679 79.078 15.1626 80 17.6171V20.1954C78.7813 22.6912 77.3877 24.9807 74.4893 26.0378C74.0178 26.2079 73.6574 27.2805 73.6521 27.9405C73.5886 33.6849 73.5886 39.4242 73.6521 45.1686C73.6574 45.8132 74.0178 46.8548 74.484 47.0353C77.4725 48.1749 78.9085 50.5211 80 53.2025V55.7808C76.5929 62.4894 74.2032 63.2681 66.5996 60.2721C66.0909 60.071 65.2537 60.2979 64.7185 60.5867C59.4993 63.4589 54.2959 66.362 49.1456 69.3477C48.5415 69.6983 47.9216 70.611 47.9163 71.2659C47.8739 76.5771 45.0974 79.8773 40.408 79.9959C35.2524 80.1248 32.4864 77.1856 32.2003 71.4515C32.1632 70.7554 31.6492 69.8014 31.0558 69.4559C25.455 66.2073 19.7854 63.067 15.0007 60.3804C11.885 61.0662 9.55358 62.0305 7.24334 61.9841C2.99907 61.9119 1.2187 58.7561 0 55.2703ZM41.9499 39.78C50.0623 44.3281 57.7189 48.5616 65.2961 52.9395C66.3664 53.5583 67.2407 54.7546 67.8183 55.8684C68.9045 57.9671 71.0611 59.081 73.2706 58.359C75.3424 57.6835 76.5664 55.4611 75.9942 53.4139C75.3742 51.1811 73.3077 50.0673 70.9127 50.3561C69.8159 50.4901 68.4753 50.3664 67.5374 49.8507C60.9193 46.2411 54.3754 42.5026 47.8103 38.8054C46.6075 38.1299 45.4047 37.4544 44.0959 36.7222C44.4933 36.3612 44.6523 36.1549 44.8589 36.0363C52.6427 31.6429 60.4159 27.2289 68.2421 22.9181C68.9469 22.5313 70.049 22.6654 70.9339 22.7892C73.3236 23.1243 75.406 21.9074 76.0048 19.6797C76.5823 17.5552 75.2259 15.3122 72.9739 14.6624C70.9127 14.0694 68.8303 15.2606 67.8077 17.2665C67.2407 18.3855 66.3664 19.5766 65.3014 20.1954C57.6447 24.63 49.8821 28.8842 42.2096 33.2982C40.6517 34.1954 39.486 34.2315 37.9017 33.3188C30.1603 28.8584 22.3129 24.563 14.5768 20.0974C13.5806 19.5199 12.7752 18.3803 12.2612 17.3232C11.2757 15.307 9.18797 14.0849 7.14267 14.6418C4.88542 15.2554 3.51305 17.4624 4.05882 19.6127C4.62048 21.8352 6.70817 23.047 9.0767 22.8407C10.2636 22.7376 11.6784 22.851 12.6851 23.3976C19.7642 27.2547 26.7691 31.2459 33.7899 35.2061C34.4999 35.6083 35.1676 36.0776 36.1001 36.6757C27.6964 41.4043 19.6264 45.9678 11.5035 50.4592C10.9418 50.7686 10.0199 50.6139 9.29924 50.4901C6.67108 50.0364 4.64697 51.1914 4.04822 53.5686C3.52365 55.6467 4.76884 57.7764 6.88833 58.4364C9.21976 59.1583 11.3181 57.962 12.3301 55.6106C12.7275 54.6876 13.4852 53.7078 14.3489 53.2076C21.4068 49.134 28.5283 45.1686 35.6339 41.1826C36.3439 40.7855 37.091 40.4555 38.0978 39.9502C38.0978 49.3351 38.1243 58.2714 38.0501 67.2077C38.0448 67.9399 37.5308 68.7701 37.0274 69.3889C35.3636 71.4361 35.3583 73.741 37.1387 75.3963C38.776 76.9226 41.1869 76.9433 42.8825 75.4427C44.7371 73.8081 44.7529 71.5804 43.0415 69.4766C42.5381 68.8578 41.9764 68.043 41.9711 67.316C41.8969 58.3023 41.9234 49.2938 41.9234 39.78H41.9499ZM46.1783 18.865C46.279 15.6267 43.672 12.904 40.3444 12.7906C36.842 12.6668 33.9966 15.1987 33.8853 18.535C33.7793 21.7527 36.683 24.7022 39.9947 24.7332C43.1739 24.7641 46.0776 22.0105 46.1783 18.8702V18.865Z" fill="#800080"/>
</svg>
